<svg xmlns="http://www.w3.org/2000/svg" data-name="Layer 1" viewBox="0 0 110 110"><path d="M45.027 99.071a25.858 25.858 0 0 1-19.71-23.24h3.43a.756.756 0 0 0 .59-1.22l-10.49-13.34a.769.769 0 0 0-.59-.29.754.754 0 0 0-.59.29L7.157 74.611a.752.752 0 0 0-.09.8.77.77 0 0 0 .67.42h3.59a27.305 27.305 0 0 0 27.3 25.46 26.715 26.715 0 0 0 6.41-.76.74.74 0 0 0 .57-.73A.749.749 0 0 0 45.027 99.071zM22.387 29.891a.736.736 0 0 0 .37.1.781.781 0 0 0 .55-.23A25.882 25.882 0 0 1 53.3 24.3l-1.72 2.98a.75.75 0 0 0 .03.79.726.726 0 0 0 .73.32l16.8-2.41a.761.761 0 0 0 .55-.37.744.744 0 0 0 .04-.65l-6.3-15.78a.77.77 0 0 0-.64-.47.743.743 0 0 0-.7.38l-1.8 3.11a27.375 27.375 0 0 0-38.25 16.83A.761.761 0 0 0 22.387 29.891zM99.327 50.041a26.936 26.936 0 0 0-3.87-5.17.749.749 0 0 0-1.26.73 25.878 25.878 0 0 1-10.27 28.7l-1.72-2.97a.742.742 0 0 0-1.34.09l-6.32 15.76a.8.8 0 0 0 .05.66.75.75 0 0 0 .54.36l16.82 2.43a.34.34 0 0 0 .1.01.769.769 0 0 0 .63-.33.729.729 0 0 0 .02-.79l-1.79-3.11A27.316 27.316 0 0 0 99.327 50.041zM54.988 34.555a22.45 22.45 0 1 0 22.45 22.46A22.474 22.474 0 0 0 54.988 34.555zm9.39 19.59l-9.26 16.91a.933.933 0 0 1-.81.5.749.749 0 0 1-.3-.061.9.9 0 0 1-.63-1.009l1.45-10.68-8.33.56a.979.979 0 0 1-.85-.42A.935.935 0 0 1 45.6 59l8.63-16.779a.919.919 0 0 1 1.11-.46.938.938 0 0 1 .64 1.04L54.228 53.8l9.23-1.02a.935.935 0 0 1 .88.41A.922.922 0 0 1 64.378 54.145z"/></svg>