<svg xmlns="http://www.w3.org/2000/svg" viewBox="0 0 32 32"><g data-name="no signal no wifi"><rect width="32" height="32" opacity="0"/><path d="M27.71 15.29a16.59 16.59 0 0 0-23.42 0 1 1 0 0 0 1.42 1.42 14.56 14.56 0 0 1 20.58 0 1 1 0 0 0 1.42 0A1 1 0 0 0 27.71 15.29zM24 21.17a14.66 14.66 0 0 1-10.93 2.1 1 1 0 0 0-.4 2 16.64 16.64 0 0 0 12.43-2.4A1 1 0 0 0 24 21.17zM9.66 22.12A16.27 16.27 0 0 1 8 21.17a1 1 0 0 0-1.1 1.66A15.68 15.68 0 0 0 8.8 23.92a.94.94 0 0 0 .43.1 1 1 0 0 0 .43-1.9z"/><path d="M16 22a4 4 0 1 0-4-4A4 4 0 0 0 16 22zm0-6a2 2 0 1 1-2 2A2 2 0 0 1 16 16zM16 8a1 1 0 0 0 1-1V4a1 1 0 0 0-2 0V7A1 1 0 0 0 16 8zM21 9a1 1 0 0 0 .83-.45l2-3a1 1 0 1 0-1.66-1.1l-2 3a1 1 0 0 0 .28 1.38A.94.94 0 0 0 21 9zM10.17 8.55A1 1 0 0 0 11 9a.94.94 0 0 0 .55-.17 1 1 0 0 0 .28-1.38l-2-3a1 1 0 1 0-1.66 1.1z"/></g></svg>