<svg xmlns="http://www.w3.org/2000/svg" data-name="Layer 1" viewBox="0 0 128 128"><path d="M100.86072 95.11719a2.02849 2.02849 0 0 0-2.84637.18555 1.98746 1.98746 0 0 0 .18713 2.82227l6.48462 5.63867a2.02895 2.02895 0 0 0 2.84631-.18555 1.98745 1.98745 0 0 0-.18707-2.82227zM106.54755 88.02441l-4.503.707a1.99894 1.99894 0 0 0 .31226 3.97559 2.06277 2.06277 0 0 0 .31812-.02441l4.50293-.707a2.00063 2.00063 0 1 0-.63031-3.95117zM96.75665 100.36719a2.01659 2.01659 0 0 0-3.9928.56836l.77313 5.34863A2.01092 2.01092 0 0 0 95.53046 108a2.08361 2.08361 0 0 0 .28955-.02051 2.00206 2.00206 0 0 0 1.70978-2.26367zM30.99432 95.30273a2.027 2.027 0 0 0-2.84686-.18555l-6.485 5.63867a1.98866 1.98866 0 0 0-.18665 2.82227 2.02961 2.02961 0 0 0 2.84686.18555l6.485-5.63867A1.98871 1.98871 0 0 0 30.99432 95.30273zM26.33228 92.68262a2.07208 2.07208 0 0 0 .31812.02441 1.999 1.999 0 0 0 .31323-3.97559l-4.5025-.707a2.00071 2.00071 0 1 0-.63129 3.95117zM34.53406 98.67188a2.01143 2.01143 0 0 0-2.283 1.69629l-.77264 5.34863a2.00271 2.00271 0 0 0 1.71075 2.2627A2.06977 2.06977 0 0 0 33.47772 108a2.01191 2.01191 0 0 0 1.99445-1.7168l.77264-5.34863A2.00271 2.00271 0 0 0 34.53406 98.67188zM105.85419 56.59375C105.85419 34.21 87.30457 16 64.50409 16S23.154 34.21 23.154 56.59375A40.14885 40.14885 0 0 0 33.23938 83.16211l.77466.877c6.00049 6.78516 12.80176 14.47559 14.10083 23.26953A5.53937 5.53937 0 0 0 53.57074 112H75.43353a5.53515 5.53515 0 0 0 5.45734-4.70215c1.01642-6.97949 5.42188-14.37793 13.46851-22.61816A40.01618 40.01618 0 0 0 105.85419 56.59375zM76.89807 106.72656A1.491 1.491 0 0 1 75.43353 108H53.57074a1.49318 1.49318 0 0 1-1.46411-1.27148c-1.47241-9.96289-8.69073-18.125-15.05908-25.32715l-.77222-.874a36.16664 36.16664 0 0 1-9.08716-23.93359C27.18817 36.416 43.928 20 64.50409 20 85.08063 20 101.82 36.416 101.82 56.59375A36.05039 36.05039 0 0 1 91.46179 81.89648C82.80353 90.76367 78.04059 98.88477 76.89807 106.72656z"/><path d="M50.86078 66.10254l-.37329-.415A15.98077 15.98077 0 0 1 46.3504 55c0-6.2832 3.66089-11.57617 9.79333-14.15918a1.99417 1.99417 0 0 0 1.06769-2.623A2.02354 2.02354 0 0 0 54.566 37.15918C47.01031 40.3418 42.31622 47.17871 42.31622 55a19.95923 19.95923 0 0 0 5.15991 13.34961l.37622.418c2.81091 3.11914 5.99658 6.65527 6.57965 10.52734A2.01141 2.01141 0 0 0 56.42444 81a2.092 2.092 0 0 0 .30042-.02148 2.003 2.003 0 0 0 1.697-2.27344C57.661 73.64941 54.0484 69.64063 50.86078 66.10254zM74.58948 116H54.4187a2.00007 2.00007 0 1 0 0 4H74.58948a2.00007 2.00007 0 1 0 0-4zM70.5553 124H58.45288a2.00007 2.00007 0 1 0 0 4H70.5553a2.00007 2.00007 0 1 0 0-4zM63.49554 11.90527a2.00868 2.00868 0 0 0 2.01709-2V2a2.01716 2.01716 0 0 0-4.03418 0V9.90527A2.00872 2.00872 0 0 0 63.49554 11.90527zM42.99487 13.81348A2.02124 2.02124 0 0 0 45.58417 15a1.99554 1.99554 0 0 0 1.19666-2.56738L44.024 5.00391a2.02078 2.02078 0 0 0-2.58929-1.18652A1.99554 1.99554 0 0 0 40.2381 6.38477zM26.98627 23.68359a2.02947 2.02947 0 0 0 2.8429.23145 1.98849 1.98849 0 0 0 .233-2.81934L24.881 15.04a2.03081 2.03081 0 0 0-2.8429-.23145 1.98849 1.98849 0 0 0-.233 2.81934zM19.39417 34.84961L12.4137 30.89648a2.02913 2.02913 0 0 0-2.75183.74414 1.99062 1.99062 0 0 0 .75146 2.72852l6.98047 3.95313a2.027 2.027 0 0 0 2.75183-.74414A1.99062 1.99062 0 0 0 19.39417 34.84961zM15.30188 52.0293l-7.93781-1.373a2.001 2.001 0 1 0-.69336 3.94141l7.93781 1.373A2.12421 2.12421 0 0 0 14.9577 56a1.999 1.999 0 0 0 .34418-3.9707zM122.96979 52.2832a2.01943 2.01943 0 0 0-2.33423-1.627l-7.93732 1.373A1.999 1.999 0 0 0 113.043 56a2.12654 2.12654 0 0 0 .34863-.0293l7.93732-1.373A2.00335 2.00335 0 0 0 122.96979 52.2832zM117.32825 31.64063a2.02588 2.02588 0 0 0-2.75177-.74414l-6.98 3.95312a1.99078 1.99078 0 0 0-.75049 2.72852 2.027 2.027 0 0 0 2.75183.74414l6.98-3.95312A1.99072 1.99072 0 0 0 117.32825 31.64063zM98.46545 24.38965a2.02128 2.02128 0 0 0 1.53937-.70605l5.18158-6.05566a1.98988 1.98988 0 0 0-.2334-2.81934 2.03047 2.03047 0 0 0-2.84344.23145L96.928 21.0957a1.98983 1.98983 0 0 0 .2334 2.81934A2.02312 2.02312 0 0 0 98.46545 24.38965zM81.407 15a2.02124 2.02124 0 0 0 2.58929-1.18652L86.753 6.38477a1.9947 1.9947 0 0 0-1.19666-2.56738A2.02178 2.02178 0 0 0 82.967 5.00391l-2.75671 7.42871A1.9947 1.9947 0 0 0 81.407 15z"/></svg>