<svg xmlns="http://www.w3.org/2000/svg" width="32" height="32" viewBox="0 0 32 32" style="isolation:isolate"><path fill-rule="evenodd" d=" M 6 5 L 26 5 C 27.33 5 28.6 5.53 29.54 6.46 C 30.47 7.4 31 8.67 31 10 L 31 22 C 31 23.33 30.47 24.6 29.54 25.54 C 28.6 26.47 27.33 27 26 27 L 6 27 C 4.67 27 3.4 26.47 2.46 25.54 C 1.53 24.6 1 23.33 1 22 L 1 10 C 1 8.67 1.53 7.4 2.46 6.46 C 3.4 5.53 4.67 5 6 5 Z  M 6 7 L 26 7 C 26.8 7 27.56 7.32 28.12 7.88 C 28.68 8.44 29 9.2 29 10 L 29 22 C 29 22.8 28.68 23.56 28.12 24.12 C 27.56 24.68 26.8 25 26 25 L 6 25 C 5.2 25 4.44 24.68 3.88 24.12 C 3.32 23.56 3 22.8 3 22 L 3 10 C 3 9.2 3.32 8.44 3.88 7.88 C 4.44 7.32 5.2 7 6 7 Z "/><path d="M29.55 9.11C29.79 8.99 30.06 8.97 30.32 9.05 30.57 9.14 30.78 9.32 30.89 9.55 31.01 9.79 31.03 10.06 30.95 10.32 30.86 10.57 30.68 10.78 30.45 10.89L18.24 17C18.23 17 18.22 17.01 18.21 17.01 17.52 17.33 16.76 17.49 16 17.48 15.24 17.49 14.48 17.33 13.79 17.01 13.78 17.01 13.77 17 13.76 17L1.55 10.89C1.32 10.78 1.14 10.57 1.05 10.32.97 10.06.99 9.79 1.11 9.55 1.22 9.32 1.43 9.14 1.68 9.05 1.94 8.97 2.21 8.99 2.45 9.11L14.65 15.2C15.07 15.4 15.53 15.49 16 15.48 16.47 15.49 16.93 15.4 17.35 15.2L29.55 9.11zM11 21C11.27 21 11.52 21.11 11.71 21.29 11.89 21.48 12 21.73 12 22 12 22.27 11.89 22.52 11.71 22.71 11.52 22.89 11.27 23 11 23L6 23C5.73 23 5.48 22.89 5.29 22.71 5.11 22.52 5 22.27 5 22 5 21.73 5.11 21.48 5.29 21.29 5.48 21.11 5.73 21 6 21L11 21z"/></svg>