<svg xmlns="http://www.w3.org/2000/svg" data-name="Layer 2" viewBox="0 0 35 35"><path d="M22.33,34.63a10.86,10.86,0,0,1-3.07-.6,9.32,9.32,0,0,0-2.25-.5,10.21,10.21,0,0,0-2.17.35c-1.48.36-3.17.77-4.75.06S7.7,31.7,7,30.35a8.93,8.93,0,0,0-1.17-1.86A9,9,0,0,0,4,27.13c-1.28-.79-2.72-1.69-3.31-3.24S.54,20.7,1,19.27A9.39,9.39,0,0,0,1.47,17a9,9,0,0,0-.35-2.17c-.36-1.48-.77-3.16-.06-4.75A7.21,7.21,0,0,1,4.65,7,8.93,8.93,0,0,0,6.51,5.82,9.32,9.32,0,0,0,7.87,4C8.66,2.67,9.56,1.23,11.12.64S14.3.54,15.74,1a9.22,9.22,0,0,0,2.25.5,9.59,9.59,0,0,0,2.17-.36c1.48-.35,3.17-.76,4.75-.05A7.21,7.21,0,0,1,28,4.65a8.93,8.93,0,0,0,1.17,1.86,9,9,0,0,0,1.87,1.36c1.28.79,2.72,1.69,3.31,3.24s.1,3.19-.33,4.63a9.32,9.32,0,0,0-.5,2.25,9,9,0,0,0,.35,2.17c.36,1.48.77,3.16.06,4.75h0c-.71,1.58-2.24,2.39-3.59,3.1a9.3,9.3,0,0,0-1.87,1.17,9.41,9.41,0,0,0-1.35,1.87c-.79,1.28-1.69,2.72-3.24,3.31A4.28,4.28,0,0,1,22.33,34.63ZM16.92,31h.16a11.34,11.34,0,0,1,2.9.6A5.34,5.34,0,0,0,23,32c.76-.28,1.36-1.26,2-2.29a11.71,11.71,0,0,1,1.77-2.37,11.31,11.31,0,0,1,2.41-1.56,5.28,5.28,0,0,0,2.48-1.92h0a5.26,5.26,0,0,0-.21-3.13A11,11,0,0,1,31,17.92a11.34,11.34,0,0,1,.6-2.9A5.34,5.34,0,0,0,32,12c-.29-.76-1.26-1.36-2.29-2a11.71,11.71,0,0,1-2.37-1.77A11.31,11.31,0,0,1,25.8,5.82a5.34,5.34,0,0,0-1.92-2.48,5.32,5.32,0,0,0-3.13.2A10.06,10.06,0,0,1,17.92,4,11.5,11.5,0,0,1,15,3.37,5.29,5.29,0,0,0,12,3c-.76.29-1.36,1.26-2,2.29A11.71,11.71,0,0,1,8.23,7.64,11.31,11.31,0,0,1,5.82,9.2a5.34,5.34,0,0,0-2.48,1.92,5.32,5.32,0,0,0,.2,3.13A10.49,10.49,0,0,1,4,17.08,11.5,11.5,0,0,1,3.37,20,5.29,5.29,0,0,0,3,23c.29.76,1.26,1.36,2.29,2a11.71,11.71,0,0,1,2.37,1.77A11.31,11.31,0,0,1,9.2,29.18a5.34,5.34,0,0,0,1.92,2.48,5.34,5.34,0,0,0,3.13-.21A11.52,11.52,0,0,1,16.92,31Z"/><path d="M15.6,22.27a1.22,1.22,0,0,1-.87-.35l-3.6-3.53a1.24,1.24,0,1,1,1.74-1.78l2.74,2.68,6.53-6.22a1.25,1.25,0,1,1,1.72,1.81l-7.4,7A1.23,1.23,0,0,1,15.6,22.27Z"/></svg>